<?xml version="1.0" encoding="UTF-8"?>
<svg width="276px" height="36px" viewBox="0 0 276 36" version="1.1" xmlns="http://www.w3.org/2000/svg" xmlns:xlink="http://www.w3.org/1999/xlink">
    <!-- Generator: Sketch 55.2 (78181) - https://sketchapp.com -->
    <title>Logo</title>
    <desc>Created with Sketch.</desc>
    <g id="Page-1" stroke="none" stroke-width="1" fill="none" fill-rule="evenodd">
        <g id="Home" transform="translate(-250.000000, -50.000000)" fill="#FFFFFF" fill-rule="nonzero">
            <g id="Logo" transform="translate(250.000000, 50.000000)">
              <g id="Group">
                  <path d="M17.6410822,30.9272727 C17.6410822,30.4363636 17.3113424,30.1090909 16.8167326,30.1090909 L2.47304891,30.1090909 C1.97843913,30.1090909 1.64869927,30.4363636 1.64869927,30.9272727 C1.64869927,31.4181818 1.97843913,31.7454545 2.47304891,31.7454545 L16.8167326,31.7454545 C17.3113424,31.7454545 17.6410822,31.3363636 17.6410822,30.9272727 Z" id="Path"></path>
                  <path d="M5.77044745,34.2 L4.12174818,34.2 C3.6271384,34.2 3.29739854,34.5272727 3.29739854,35.0181818 C3.29739854,35.5090909 3.6271384,35.8363636 4.12174818,35.8363636 L5.77044745,35.8363636 C6.26505723,35.8363636 6.59479709,35.5090909 6.59479709,35.0181818 C6.59479709,34.5272727 6.26505723,34.2 5.77044745,34.2 Z" id="Path"></path>
                  <path d="M9.64489074,26.8363636 C9.64489074,26.3454545 9.31515088,26.0181818 8.8205411,26.0181818 L0.824349636,26.0181818 C0.329739854,26.0181818 0,26.3454545 0,26.8363636 C0,27.3272727 0.329739854,27.6545455 0.824349636,27.6545455 L8.8205411,27.6545455 C9.31515088,27.6545455 9.64489074,27.2454545 9.64489074,26.8363636 Z" id="Path"></path>
                  <path d="M50.6150676,28.2272727 C50.3677627,27.7363636 49.873153,27.3272727 49.3785432,27.0818182 L43.113486,24.7090909 L43.113486,24.7090909 L43.113486,24.7090909 L40.5580021,23.8090909 C39.8160874,23.4818182 39.1566077,22.9909091 38.7444329,22.3363636 L36.6011238,18.8181818 C37.0132986,18.7363636 37.2606035,18.4090909 37.2606035,18 C37.2606035,17.5090909 36.9308637,17.1818182 36.4362539,17.1818182 L35.6119043,17.1818182 L34.6226847,15.5454545 C35.0348595,15.4636364 35.2821644,15.1363636 35.2821644,14.7272727 C35.2821644,14.2363636 34.9524246,13.9090909 34.4578148,13.9090909 L33.6334651,13.9090909 L32.8091155,12.6 C33.1388554,12.5181818 33.3861602,12.1909091 33.3861602,11.8636364 C33.3861602,11.3727273 33.0564204,11.0454545 32.5618106,11.0454545 L31.8198959,11.0454545 L30.7482414,9.32727273 C30.7482414,9.32727273 30.7482414,9.24545455 30.6658065,9.24545455 C29.6765869,8.1 28.3576275,7.52727273 26.9562331,7.69090909 C25.7197086,7.85454545 24.7304891,8.59090909 24.3183143,9.49090909 C24.2358793,9.73636364 24.2358793,9.98181818 24.4007492,10.2272727 L31.2428512,21.8454545 C31.3252862,22.0090909 31.4901561,22.1727273 31.655026,22.1727273 L40.0633923,25.3636364 L40.1458273,25.3636364 L42.6188762,26.2636364 L42.6188762,26.2636364 L42.6188762,26.2636364 L42.6188762,26.2636364 L42.6188762,26.2636364 L42.6188762,26.2636364 L48.8014984,28.6363636 C48.9663684,28.7181818 49.1312383,28.8 49.2136733,29.0454545 C49.5434131,29.7 49.5434131,30.3545455 49.1312383,31.0090909 L35.6943392,31.0090909 C34.8699896,31.0090909 34.04564,30.7636364 33.3861602,30.2727273 L10.3868054,13.3363636 C10.3868054,13.3363636 10.7165453,13.1727273 11.1287201,12.6 C11.5408949,12.0272727 11.7057648,11.2909091 11.7057648,10.5545455 L10.9638502,3.68181818 L11.9530697,2.12727273 C12.2003746,1.8 12.6949844,1.71818182 13.0247242,1.96363636 C13.2720291,2.20909091 14.2612487,3.02727273 16.6518626,6.87272727 C17.8883871,8.67272727 19.8668262,9.98181818 22.0925702,10.3090909 C22.5047451,10.3909091 22.9993548,10.0636364 23.0817898,9.65454545 C23.1642248,9.24545455 22.8344849,8.75454545 22.4223101,8.67272727 C20.6911759,8.34545455 19.0424766,7.36363636 18.053257,5.89090909 C15.1680333,1.47272727 14.3436837,0.818181818 14.0139438,0.572727273 C12.9422893,-0.163636364 11.4584599,0.0818181818 10.6341103,1.14545455 L5.60557752,9.08181818 C5.27583767,9.57272727 5.19340271,10.1454545 5.27583767,10.7181818 C4.78122789,10.8818182 4.28661811,11.1272727 4.03931322,11.6181818 L2.7203538,13.6636364 C1.97843913,14.7272727 2.30817898,16.2 3.37983351,16.9363636 C4.12174818,17.5090909 5.68801249,18.4909091 7.99619147,19.9636364 C8.16106139,20.0454545 8.32593132,20.1272727 8.40836629,20.1272727 C8.65567118,20.1272727 8.90297607,19.9636364 9.06784599,19.7181818 C9.31515088,19.3090909 9.23271592,18.8181818 8.8205411,18.5727273 C6.59479709,17.1 5.02853278,16.1181818 4.28661811,15.5454545 C3.95687825,15.3 3.87444329,14.8909091 4.12174818,14.4818182 L5.35827263,12.6 C5.60557752,12.2727273 6.1001873,12.1909091 6.42992716,12.4363636 L6.42992716,12.4363636 L32.3145057,31.5818182 C33.3037253,32.3181818 34.4578148,32.6454545 35.6119043,32.6454545 L46.9879292,32.6454545 C45.256795,33.4636364 42.8661811,34.2 40.805307,34.2 L40.805307,34.2 L37.9200832,34.2 L35.5294693,34.2 L35.5294693,34.2 C34.1280749,34.2 32.7266805,33.7909091 31.5725911,33.0545455 C26.7913632,30.0272727 17.8883871,24.3818182 11.376025,20.2090909 C10.9638502,19.9636364 10.4692404,20.0454545 10.2219355,20.4545455 C9.97463059,20.8636364 10.0570656,21.3545455 10.4692404,21.6 C16.8167326,25.6909091 25.4724037,31.1727273 30.3360666,34.2818182 L9.06784599,34.2818182 C8.57323621,34.2818182 8.24349636,34.6090909 8.24349636,35.1 C8.24349636,35.5909091 8.57323621,35.9181818 9.06784599,35.9181818 L35.5294693,35.9181818 L35.5294693,35.9181818 L37.9200832,35.9181818 L40.722872,35.9181818 L40.722872,35.9181818 C44.1027055,35.9181818 48.9663684,34.1181818 50.2028928,32.4 C51.2745473,30.9272727 51.3569823,29.5363636 50.6150676,28.2272727 Z M32.3969407,20.8636364 L25.9670135,9.98181818 C26.2143184,9.73636364 26.6264932,9.49090909 27.121103,9.40909091 C27.6157128,9.32727273 28.5224974,9.40909091 29.346847,10.3090909 L29.8414568,11.1272727 L29.0995421,11.1272727 C28.6049324,11.1272727 28.2751925,11.4545455 28.2751925,11.9454545 C28.2751925,12.4363636 28.6049324,12.7636364 29.0995421,12.7636364 L30.8306764,12.7636364 L31.655026,14.0727273 L30.9955463,14.0727273 C30.5009365,14.0727273 30.1711967,14.4 30.1711967,14.8909091 C30.1711967,15.3818182 30.5009365,15.7090909 30.9955463,15.7090909 L32.6442456,15.7090909 L33.6334651,17.2636364 L32.9739854,17.2636364 C32.4793757,17.2636364 32.1496358,17.5909091 32.1496358,18.0818182 C32.1496358,18.5727273 32.4793757,18.9 32.9739854,18.9 L34.6226847,18.9 L36.9308637,22.5 L32.3969407,20.8636364 Z M7.0069719,9.98181818 L9.56245578,5.97272727 L10.0570656,10.7181818 C10.0570656,11.0454545 9.97463059,11.3727273 9.80976067,11.6181818 C9.64489074,11.8636364 9.31515088,12.5181818 8.57323621,11.9454545 C8.57323621,11.9454545 8.16106139,11.7 7.41914672,11.1272727 C6.92453694,10.7181818 6.84210198,10.3090909 7.0069719,9.98181818 Z" id="Shape"></path>
              </g>
            </g>
        </g>
    </g>
</svg>
